HIERARCHY
ROOT Hips
{
  OFFSET 0.0000 94.0000 0.0000
  CHANNELS 6 Xposition Yposition Zposition Yrotation Xrotation Zrotation
  JOINT Spine1
  {
    OFFSET 0.0000 9.4826 -4.4131
    CHANNELS 3 Yrotation Xrotation Zrotation
    JOINT Spine2
    {
      OFFSET 0.0000 -8.4870 0.0000
      CHANNELS 3 Yrotation Xrotation Zrotation
      JOINT Spine3
      {
        OFFSET 0.0000 -8.4870 0.0000
        CHANNELS 3 Yrotation Xrotation Zrotation
        JOINT Spine4
        {
          OFFSET 0.0000 -14.3310 0.0000
          CHANNELS 3 Yrotation Xrotation Zrotation
          JOINT Neck
          {
            OFFSET 0.0000 -22.6512 0.0000
            CHANNELS 3 Yrotation Xrotation Zrotation
            JOINT Head
            {
              OFFSET 0.0000 -12.2776 0.0000
              CHANNELS 3 Yrotation Xrotation Zrotation
              JOINT HeadTip
              {
                OFFSET 0.0000 -18.6401 0.0000
                CHANNELS 3 Yrotation Xrotation Zrotation
                End Site
                {
                  OFFSET 0.0000 -9.3200 0.0000
                }
              }
            }
          }
          JOINT RightShoulder
          {
            OFFSET 7.8688 -13.9031 2.1401
            CHANNELS 3 Yrotation Xrotation Zrotation
            JOINT RightArm
            {
              OFFSET 0.0000 -14.3076 0.0000
              CHANNELS 3 Yrotation Xrotation Zrotation
              JOINT RightForeArm
              {
                OFFSET 0.0000 -29.4722 0.0000
                CHANNELS 3 Yrotation Xrotation Zrotation
                JOINT RightHand
                {
                  OFFSET 0.0000 -27.2009 0.0000
                  CHANNELS 3 Yrotation Xrotation Zrotation
                  JOINT RightFinger1Metacarpal
                  {
                    OFFSET -2.6225 -1.9568 0.0969
                    CHANNELS 3 Yrotation Xrotation Zrotation
                    JOINT RightFinger1Proximal
                    {
                      OFFSET 0.0000 -3.7290 0.0000
                      CHANNELS 3 Yrotation Xrotation Zrotation
                      JOINT RightFinger1Distal
                      {
                        OFFSET 0.0000 -2.8303 0.0000
                        CHANNELS 3 Yrotation Xrotation Zrotation
                        JOINT RightFinger1Tip
                        {
                          OFFSET 0.0000 -3.2334 0.0000
                          CHANNELS 3 Yrotation Xrotation Zrotation
                          End Site
                          {
                            OFFSET 0.0000 -1.6167 0.0000
                          }
                        }
                      }
                    }
                  }
                  JOINT RightFinger5Metacarpal
                  {
                    OFFSET 1.4009 -2.3428 0.0969
                    CHANNELS 3 Yrotation Xrotation Zrotation
                    JOINT RightFinger5Proximal
                    {
                      OFFSET 0.0000 -4.5362 0.0000
                      CHANNELS 3 Yrotation Xrotation Zrotation
                      JOINT RightFinger5Medial
                      {
                        OFFSET 0.0000 -3.3451 0.0000
                        CHANNELS 3 Yrotation Xrotation Zrotation
                        JOINT RightFinger5Distal
                        {
                          OFFSET 0.0000 -2.1026 0.0000
                          CHANNELS 3 Yrotation Xrotation Zrotation
                          JOINT RightFinger5Tip
                          {
                            OFFSET 0.0000 -2.1418 0.0000
                            CHANNELS 3 Yrotation Xrotation Zrotation
                            End Site
                            {
                              OFFSET 0.0000 -1.0709 0.0000
                            }
                          }
                        }
                      }
                    }
                  }
                  JOINT RightFinger4Metacarpal
                  {
                    OFFSET 0.5156 -2.5830 0.0969
                    CHANNELS 3 Yrotation Xrotation Zrotation
                    JOINT RightFinger4Proximal
                    {
                      OFFSET 0.0000 -4.8382 0.0000
                      CHANNELS 3 Yrotation Xrotation Zrotation
                      JOINT RightFinger4Medial
                      {
                        OFFSET 0.0000 -4.1340 0.0000
                        CHANNELS 3 Yrotation Xrotation Zrotation
                        JOINT RightFinger4Distal
                        {
                          OFFSET 0.0000 -2.6661 0.0000
                          CHANNELS 3 Yrotation Xrotation Zrotation
                          JOINT RightFinger4Tip
                          {
                            OFFSET 0.0000 -2.5957 0.0000
                            CHANNELS 3 Yrotation Xrotation Zrotation
                            End Site
                            {
                              OFFSET 0.0000 -1.2979 0.0000
                            }
                          }
                        }
                      }
                    }
                  }
                  JOINT RightFinger3Metacarpal
                  {
                    OFFSET -0.5130 -2.6061 0.0970
                    CHANNELS 3 Yrotation Xrotation Zrotation
                    JOINT RightFinger3Proximal
                    {
                      OFFSET 0.0000 -5.0521 0.0000
                      CHANNELS 3 Yrotation Xrotation Zrotation
                      JOINT RightFinger3Medial
                      {
                        OFFSET 0.0000 -4.4259 0.0000
                        CHANNELS 3 Yrotation Xrotation Zrotation
                        JOINT RightFinger3Distal
                        {
                          OFFSET 0.0000 -2.9192 0.0000
                          CHANNELS 3 Yrotation Xrotation Zrotation
                          JOINT RightFinger3Tip
                          {
                            OFFSET 0.0000 -2.8234 0.0000
                            CHANNELS 3 Yrotation Xrotation Zrotation
                            End Site
                            {
                              OFFSET 0.0000 -1.4117 0.0000
                            }
                          }
                        }
                      }
                    }
                  }
                  JOINT RightFinger2Metacarpal
                  {
                    OFFSET -1.5099 -2.4913 0.0970
                    CHANNELS 3 Yrotation Xrotation Zrotation
                    JOINT RightFinger2Proximal
                    {
                      OFFSET 0.0000 -5.1867 0.0000
                      CHANNELS 3 Yrotation Xrotation Zrotation
                      JOINT RightFinger2Medial
                      {
                        OFFSET 0.0000 -4.3112 0.0000
                        CHANNELS 3 Yrotation Xrotation Zrotation
                        JOINT RightFinger2Distal
                        {
                          OFFSET 0.0000 -2.6524 0.0000
                          CHANNELS 3 Yrotation Xrotation Zrotation
                          JOINT RightFinger2Tip
                          {
                            OFFSET 0.0000 -2.5993 0.0000
                            CHANNELS 3 Yrotation Xrotation Zrotation
                            End Site
                            {
                              OFFSET 0.0000 -1.2997 0.0000
                            }
                          }
                        }
                      }
                    }
                  }
                }
              }
            }
          }
          JOINT LeftShoulder
          {
            OFFSET -7.8688 -13.9031 2.1401
            CHANNELS 3 Yrotation Xrotation Zrotation
            JOINT LeftArm
            {
              OFFSET 0.0000 -14.3076 0.0000
              CHANNELS 3 Yrotation Xrotation Zrotation
              JOINT LeftForeArm
              {
                OFFSET 0.0001 -29.4722 0.0000
                CHANNELS 3 Yrotation Xrotation Zrotation
                JOINT LeftHand
                {
                  OFFSET 0.0000 -27.2009 0.0000
                  CHANNELS 3 Yrotation Xrotation Zrotation
                  JOINT LeftFinger5Metacarpal
                  {
                    OFFSET -1.4009 -2.3428 0.0970
                    CHANNELS 3 Yrotation Xrotation Zrotation
                    JOINT LeftFinger5Proximal
                    {
                      OFFSET 0.0000 -4.5362 0.0000
                      CHANNELS 3 Yrotation Xrotation Zrotation
                      JOINT LeftFinger5Medial
                      {
                        OFFSET 0.0000 -3.3451 0.0000
                        CHANNELS 3 Yrotation Xrotation Zrotation
                        JOINT LeftFinger5Distal
                        {
                          OFFSET 0.0000 -2.1026 0.0000
                          CHANNELS 3 Yrotation Xrotation Zrotation
                          JOINT LeftFinger5Tip
                          {
                            OFFSET 0.0000 -2.1418 0.0000
                            CHANNELS 3 Yrotation Xrotation Zrotation
                            End Site
                            {
                              OFFSET 0.0000 -1.0709 0.0000
                            }
                          }
                        }
                      }
                    }
                  }
                  JOINT LeftFinger4Metacarpal
                  {
                    OFFSET -0.5156 -2.5830 0.0970
                    CHANNELS 3 Yrotation Xrotation Zrotation
                    JOINT LeftFinger4Proximal
                    {
                      OFFSET 0.0000 -4.8382 0.0000
                      CHANNELS 3 Yrotation Xrotation Zrotation
                      JOINT LeftFinger4Medial
                      {
                        OFFSET 0.0000 -4.1340 0.0000
                        CHANNELS 3 Yrotation Xrotation Zrotation
                        JOINT LeftFinger4Distal
                        {
                          OFFSET 0.0000 -2.6661 0.0000
                          CHANNELS 3 Yrotation Xrotation Zrotation
                          JOINT LeftFinger4Tip
                          {
                            OFFSET 0.0000 -2.5958 0.0000
                            CHANNELS 3 Yrotation Xrotation Zrotation
                            End Site
                            {
                              OFFSET 0.0000 -1.2979 0.0000
                            }
                          }
                        }
                      }
                    }
                  }
                  JOINT LeftFinger3Metacarpal
                  {
                    OFFSET 0.5130 -2.6060 0.0970
                    CHANNELS 3 Yrotation Xrotation Zrotation
                    JOINT LeftFinger3Proximal
                    {
                      OFFSET 0.0000 -5.0521 0.0000
                      CHANNELS 3 Yrotation Xrotation Zrotation
                      JOINT LeftFinger3Medial
                      {
                        OFFSET 0.0000 -4.4259 0.0000
                        CHANNELS 3 Yrotation Xrotation Zrotation
                        JOINT LeftFinger3Distal
                        {
                          OFFSET 0.0000 -2.9192 0.0000
                          CHANNELS 3 Yrotation Xrotation Zrotation
                          JOINT LeftFinger3Tip
                          {
                            OFFSET 0.0000 -2.8234 0.0000
                            CHANNELS 3 Yrotation Xrotation Zrotation
                            End Site
                            {
                              OFFSET 0.0000 -1.4117 0.0000
                            }
                          }
                        }
                      }
                    }
                  }
                  JOINT LeftFinger2Metacarpal
                  {
                    OFFSET 1.5099 -2.4913 0.0970
                    CHANNELS 3 Yrotation Xrotation Zrotation
                    JOINT LeftFinger2Proximal
                    {
                      OFFSET 0.0000 -5.1867 0.0000
                      CHANNELS 3 Yrotation Xrotation Zrotation
                      JOINT LeftFinger2Medial
                      {
                        OFFSET 0.0000 -4.3112 0.0000
                        CHANNELS 3 Yrotation Xrotation Zrotation
                        JOINT LeftFinger2Distal
                        {
                          OFFSET 0.0000 -2.6524 0.0000
                          CHANNELS 3 Yrotation Xrotation Zrotation
                          JOINT LeftFinger2Tip
                          {
                            OFFSET 0.0000 -2.5993 0.0000
                            CHANNELS 3 Yrotation Xrotation Zrotation
                            End Site
                            {
                              OFFSET 0.0000 -1.2997 0.0000
                            }
                          }
                        }
                      }
                    }
                  }
                  JOINT LeftFinger1Metacarpal
                  {
                    OFFSET 2.6225 -1.9568 0.0970
                    CHANNELS 3 Yrotation Xrotation Zrotation
                    JOINT LeftFinger1Proximal
                    {
                      OFFSET 0.0000 -3.7290 0.0000
                      CHANNELS 3 Yrotation Xrotation Zrotation
                      JOINT LeftFinger1Distal
                      {
                        OFFSET 0.0000 -2.8303 0.0000
                        CHANNELS 3 Yrotation Xrotation Zrotation
                        JOINT LeftFinger1Tip
                        {
                          OFFSET 0.0000 -3.2334 0.0000
                          CHANNELS 3 Yrotation Xrotation Zrotation
                          End Site
                          {
                            OFFSET 0.0000 -1.6167 0.0000
                          }
                        }
                      }
                    }
                  }
                }
              }
            }
          }
        }
      }
    }
  }
  JOINT RightThigh
  {
    OFFSET -9.0535 0.0000 0.0000
    CHANNELS 3 Yrotation Xrotation Zrotation
    JOINT RightShin
    {
      OFFSET 0.0000 -43.0940 0.0000
      CHANNELS 3 Yrotation Xrotation Zrotation
      JOINT RightFoot
      {
        OFFSET 0.0000 -44.7484 -0.0646
        CHANNELS 3 Yrotation Xrotation Zrotation
        JOINT RightToe
        {
          OFFSET 0.0000 -11.3267 5.3664
          CHANNELS 3 Yrotation Xrotation Zrotation
          JOINT RightToeTip
          {
            OFFSET 0.0000 -6.4039 1.0812
            CHANNELS 3 Yrotation Xrotation Zrotation
            End Site
            {
              OFFSET 0.0000 -3.2019 0.5406
            }
          }
        }
      }
    }
  }
  JOINT LeftThigh
  {
    OFFSET 9.0535 0.0000 0.0000
    CHANNELS 3 Yrotation Xrotation Zrotation
    JOINT LeftShin
    {
      OFFSET 0.0000 -43.0940 0.0000
      CHANNELS 3 Yrotation Xrotation Zrotation
      JOINT LeftFoot
      {
        OFFSET 0.0000 -44.7484 -0.0647
        CHANNELS 3 Yrotation Xrotation Zrotation
        JOINT LeftToe
        {
          OFFSET 0.0000 -11.3267 5.3664
          CHANNELS 3 Yrotation Xrotation Zrotation
          JOINT LeftToeTip
          {
            OFFSET 0.0000 -6.4039 1.0812
            CHANNELS 3 Yrotation Xrotation Zrotation
            End Site
            {
              OFFSET 0.0000 -3.2019 0.5406
            }
          }
        }
      }
    }
  }
}
MOTION
Frames: 4
Frame Time: 0.010000
1.2939 98.6840 -26.5710 -12.2706 3.4086 1.4438 -4.4557 0.2780 -178.7111 1.0401 -0.0536 0.3031 1.0401 -0.0536 0.3031 1.0401 -0.0536 0.3031 -3.5789 -17.1146 5.4286 0.0000 0.0000 0.0000 0.0000 0.0000 0.0000 20.8081 -1.2252 94.7640 104.2271 -43.5999 -46.9422 7.7271 4.5756 -83.5212 27.1524 18.5181 30.6086 40.8933 20.7046 -22.2077 -4.1067 -20.7048 22.2077 0.0000 0.0000 0.0000 0.0000 0.0000 0.0000 -0.0001 -0.0001 20.0000 7.1163 -18.7971 -21.1794 0.0000 -20.0535 0.0000 0.0000 -20.0535 0.0000 0.0000 0.0000 0.0000 0.0000 -0.0001 10.0000 3.6268 -19.7361 -10.6311 0.0000 -20.0535 0.0000 0.0000 -20.0535 0.0000 0.0000 0.0000 0.0000 0.0000 0.0000 0.0000 0.0000 -20.0535 0.0000 0.0000 -20.0535 0.0000 0.0000 -20.0535 0.0000 0.0000 0.0000 0.0000 0.0000 -0.0001 -10.0001 -3.6271 -19.7360 10.6312 0.0000 -20.0535 0.0000 0.0000 -20.0535 0.0000 0.0000 0.0000 0.0000 -9.1170 -0.0486 -90.6910 -94.4743 -51.5884 50.0833 -2.1825 2.6138 63.5925 -2.9037 21.7628 -30.9577 0.0001 -0.0001 -20.0000 -7.1163 -18.7970 21.1794 0.0000 -20.0535 0.0000 0.0000 -20.0535 0.0000 0.0000 0.0000 0.0000 0.0000 -0.0001 -9.9999 -3.6271 -19.7360 10.6311 0.0000 -20.0535 0.0000 0.0000 -20.0535 0.0000 0.0000 0.0000 0.0000 0.0000 0.0000 0.0000 0.0000 -20.0535 0.0000 0.0000 -20.0535 0.0000 0.0000 -20.0535 0.0000 0.0000 0.0000 0.0000 0.0000 0.0000 10.0000 3.6268 -19.7361 -10.6312 0.0000 -20.0535 0.0000 0.0000 -20.0535 0.0000 0.0000 0.0000 0.0000 -40.8933 20.7047 22.2076 4.1067 -20.7047 -22.2077 0.0000 0.0000 0.0000 0.0000 0.0000 0.0000 81.0663 2.1898 -2.3458 0.0034 -0.0828 0.0000 92.6634 80.0564 1.5079 0.0000 11.8201 0.0000 0.0000 0.0000 0.0000 -66.0482 1.2762 -5.3679 -0.0128 -0.0828 0.0000 -49.3855 77.7991 26.6679 0.0000 17.2223 0.0000 0.0000 0.0000 0.0000 
1.3629 98.6763 -26.4825 -12.6063 3.3412 1.3974 -4.3795 0.2419 -178.6565 1.0223 -0.0448 0.3155 1.0223 -0.0448 0.3155 1.0223 -0.0448 0.3155 -3.7715 -17.0754 5.3820 0.0000 0.0000 0.0000 0.0000 0.0000 0.0000 20.9222 -1.1751 94.5842 104.4636 -43.8159 -47.0497 7.7644 4.5779 -83.5417 27.3523 18.4614 30.6028 40.8933 20.7046 -22.2077 -4.1067 -20.7048 22.2077 0.0000 0.0000 0.0000 0.0000 0.0000 0.0000 -0.0001 -0.0001 20.0000 7.1163 -18.7971 -21.1794 0.0000 -20.0535 0.0000 0.0000 -20.0535 0.0000 0.0000 0.0000 0.0000 0.0000 -0.0001 10.0000 3.6268 -19.7361 -10.6311 0.0000 -20.0535 0.0000 0.0000 -20.0535 0.0000 0.0000 0.0000 0.0000 0.0000 0.0000 0.0000 0.0000 -20.0535 0.0000 0.0000 -20.0535 0.0000 0.0000 -20.0535 0.0000 0.0000 0.0000 0.0000 0.0000 -0.0001 -10.0001 -3.6271 -19.7360 10.6312 0.0000 -20.0535 0.0000 0.0000 -20.0535 0.0000 0.0000 0.0000 0.0000 -8.9586 -0.0496 -90.7026 -94.5056 -51.4980 50.0044 -2.1572 2.6275 63.5995 -2.6719 21.8352 -30.9661 0.0001 -0.0001 -20.0000 -7.1163 -18.7970 21.1794 0.0000 -20.0535 0.0000 0.0000 -20.0535 0.0000 0.0000 0.0000 0.0000 0.0000 -0.0001 -9.9999 -3.6271 -19.7360 10.6311 0.0000 -20.0535 0.0000 0.0000 -20.0535 0.0000 0.0000 0.0000 0.0000 0.0000 0.0000 0.0000 0.0000 -20.0535 0.0000 0.0000 -20.0535 0.0000 0.0000 -20.0535 0.0000 0.0000 0.0000 0.0000 0.0000 0.0000 10.0000 3.6268 -19.7361 -10.6312 0.0000 -20.0535 0.0000 0.0000 -20.0535 0.0000 0.0000 0.0000 0.0000 -40.8933 20.7047 22.2076 4.1067 -20.7047 -22.2077 0.0000 0.0000 0.0000 0.0000 0.0000 0.0000 81.3618 2.2445 -2.2687 0.0033 -0.0828 0.0001 92.3188 80.0044 1.1206 0.0000 11.8310 0.0000 0.0000 0.0000 0.0000 -66.6437 1.4655 -5.3685 -0.0132 -0.0828 0.0000 -50.4112 77.6507 26.1706 0.0000 17.2469 0.0000 0.0000 0.0000 0.0000 
1.4893 98.6699 -26.3568 -12.9420 3.2734 1.3515 -4.3035 0.2058 -178.6020 1.0045 -0.0361 0.3279 1.0045 -0.0361 0.3279 1.0045 -0.0361 0.3279 -3.9641 -17.0364 5.3354 0.0000 0.0000 0.0000 0.0000 0.0000 0.0000 21.0362 -1.1247 94.4045 104.7016 -44.0316 -47.1589 7.8017 4.5802 -83.5622 27.5521 18.4047 30.5968 40.8933 20.7046 -22.2077 -4.1067 -20.7048 22.2077 0.0000 0.0000 0.0000 0.0000 0.0000 0.0000 -0.0001 -0.0001 20.0000 7.1163 -18.7971 -21.1794 0.0000 -20.0535 0.0000 0.0000 -20.0535 0.0000 0.0000 0.0000 0.0000 0.0000 -0.0001 10.0000 3.6268 -19.7361 -10.6311 0.0000 -20.0535 0.0000 0.0000 -20.0535 0.0000 0.0000 0.0000 0.0000 0.0000 0.0000 0.0000 0.0000 -20.0535 0.0000 0.0000 -20.0535 0.0000 0.0000 -20.0535 0.0000 0.0000 0.0000 0.0000 0.0000 -0.0001 -10.0001 -3.6271 -19.7360 10.6312 0.0000 -20.0535 0.0000 0.0000 -20.0535 0.0000 0.0000 0.0000 0.0000 -8.8002 -0.0505 -90.7141 -94.5372 -51.4078 49.9256 -2.1319 2.6411 63.6065 -2.4400 21.9076 -30.9741 0.0001 -0.0001 -20.0000 -7.1163 -18.7970 21.1794 0.0000 -20.0535 0.0000 0.0000 -20.0535 0.0000 0.0000 0.0000 0.0000 0.0000 -0.0001 -9.9999 -3.6271 -19.7360 10.6311 0.0000 -20.0535 0.0000 0.0000 -20.0535 0.0000 0.0000 0.0000 0.0000 0.0000 0.0000 0.0000 0.0000 -20.0535 0.0000 0.0000 -20.0535 0.0000 0.0000 -20.0535 0.0000 0.0000 0.0000 0.0000 0.0000 0.0000 10.0000 3.6268 -19.7361 -10.6312 0.0000 -20.0535 0.0000 0.0000 -20.0535 0.0000 0.0000 0.0000 0.0000 -40.8933 20.7047 22.2076 4.1067 -20.7047 -22.2077 0.0000 0.0000 0.0000 0.0000 0.0000 0.0000 81.6567 2.3111 -2.1854 0.0033 -0.0828 0.0000 91.9093 79.9583 0.6671 0.0000 11.8419 0.0000 0.0000 0.0000 0.0000 -67.2395 1.7519 -5.2999 -0.0137 -0.0828 0.0000 -51.2921 77.3839 25.8278 0.0000 17.2715 0.0000 0.0000 0.0000 0.0000 
1.5870 98.6629 -26.2497 -13.2775 3.2054 1.3059 -4.2274 0.1696 -178.5475 0.9868 -0.0273 0.3403 0.9868 -0.0273 0.3403 0.9868 -0.0273 0.3403 -4.1567 -16.9975 5.2886 0.0000 0.0000 0.0000 0.0000 0.0000 0.0000 21.1500 -1.0739 94.2249 104.9409 -44.2470 -47.2698 7.8390 4.5826 -83.5827 27.7518 18.3481 30.5906 40.8933 20.7046 -22.2077 -4.1067 -20.7048 22.2077 0.0000 0.0000 0.0000 0.0000 0.0000 0.0000 -0.0001 -0.0001 20.0000 7.1163 -18.7971 -21.1794 0.0000 -20.0535 0.0000 0.0000 -20.0535 0.0000 0.0000 0.0000 0.0000 0.0000 -0.0001 10.0000 3.6268 -19.7361 -10.6311 0.0000 -20.0535 0.0000 0.0000 -20.0535 0.0000 0.0000 0.0000 0.0000 0.0000 0.0000 0.0000 0.0000 -20.0535 0.0000 0.0000 -20.0535 0.0000 0.0000 -20.0535 0.0000 0.0000 0.0000 0.0000 0.0000 -0.0001 -10.0001 -3.6271 -19.7360 10.6312 0.0000 -20.0535 0.0000 0.0000 -20.0535 0.0000 0.0000 0.0000 0.0000 -8.6419 -0.0514 -90.7256 -94.5688 -51.3175 49.8469 -2.1066 2.6548 63.6135 -2.2080 21.9801 -30.9818 0.0001 -0.0001 -20.0000 -7.1163 -18.7970 21.1794 0.0000 -20.0535 0.0000 0.0000 -20.0535 0.0000 0.0000 0.0000 0.0000 0.0000 -0.0001 -9.9999 -3.6271 -19.7360 10.6311 0.0000 -20.0535 0.0000 0.0000 -20.0535 0.0000 0.0000 0.0000 0.0000 0.0000 0.0000 0.0000 0.0000 -20.0535 0.0000 0.0000 -20.0535 0.0000 0.0000 -20.0535 0.0000 0.0000 0.0000 0.0000 0.0000 0.0000 10.0000 3.6268 -19.7361 -10.6312 0.0000 -20.0535 0.0000 0.0000 -20.0535 0.0000 0.0000 0.0000 0.0000 -40.8933 20.7047 22.2076 4.1067 -20.7047 -22.2077 0.0000 0.0000 0.0000 0.0000 0.0000 0.0000 81.9521 2.3716 -2.1054 0.0032 -0.0828 0.0000 91.5355 79.9079 0.2498 0.0000 11.8528 0.0000 0.0000 0.0000 0.0000 -67.8335 1.9946 -5.2781 -0.0141 -0.0828 0.0000 -52.1758 77.1777 25.4777 0.0000 17.2962 0.0000 0.0000 0.0000 0.0000 
